<?xml version="1.0" encoding="UTF-8"?>
<svg version="1.1" xmlns="http://www.w3.org/2000/svg" width="40" height="40">
<path d="M0 0 C13.2 0 26.4 0 40 0 C40 13.2 40 26.4 40 40 C26.8 40 13.6 40 0 40 C0 26.8 0 13.6 0 0 Z " fill="#7F8182" transform="translate(0,0)"/>
<path d="M0 0 C2.58445773 -0.1081866 5.16437352 -0.18737237 7.75 -0.25 C8.47960938 -0.28351562 9.20921875 -0.31703125 9.9609375 -0.3515625 C13.26516556 -0.41163937 15.59304366 -0.23126875 18.48828125 1.4140625 C20.81207991 5.38913927 20.5420392 9.1062087 20.4375 13.625 C20.44458984 14.49640625 20.45167969 15.3678125 20.45898438 16.265625 C20.41073643 21.06072842 20.41073643 21.06072842 20 23 C16.95026315 25.0331579 16.31043132 25.2548508 12.875 25.265625 C12.08609375 25.26820312 11.2971875 25.27078125 10.484375 25.2734375 C9.66453125 25.26570313 8.8446875 25.25796875 8 25.25 C7.18015625 25.25773437 6.3603125 25.26546875 5.515625 25.2734375 C4.72671875 25.27085938 3.9378125 25.26828125 3.125 25.265625 C2.40570312 25.26336914 1.68640625 25.26111328 0.9453125 25.25878906 C-1 25 -1 25 -4 23 C-4.1875 19.375 -4.1875 19.375 -4 16 C-3.34 15.67 -2.68 15.34 -2 15 C-1.67 15.99 -1.34 16.98 -1 18 C-0.34 18.33 0.32 18.66 1 19 C1 18.01 1 17.02 1 16 C0.34 15.34 -0.32 14.68 -1 14 C1.97 14.495 1.97 14.495 5 15 C5.33 14.01 5.66 13.02 6 12 C7.32 12 8.64 12 10 12 C10.33 12.99 10.66 13.98 11 15 C11.66 15.33 12.32 15.66 13 16 C13 12.37 13 8.74 13 5 C12.01 5 11.02 5 10 5 C10 6.32 10 7.64 10 9 C8.68 9 7.36 9 6 9 C6 7.68 6 6.36 6 5 C4.68 5 3.36 5 2 5 C2 4.34 2 3.68 2 3 C1.01 2.67 0.02 2.34 -1 2 C-0.67 1.34 -0.34 0.68 0 0 Z " fill="#F0F1EB" transform="translate(12,6)"/>
<path d="M0 0 C0.81597656 -0.02900391 1.63195313 -0.05800781 2.47265625 -0.08789062 C8.51025412 -0.15191083 8.51025412 -0.15191083 11.6328125 2.20703125 C14.39006531 6.09750054 14.31884909 8.78967253 14.375 13.5625 C14.40078125 14.86703125 14.4265625 16.1715625 14.453125 17.515625 C14.10652326 21.52630226 13.24428849 23.91752329 11.125 27.3125 C7.75886353 28.99556823 4.01066492 28.58135525 0.3125 28.625 C-0.89889648 28.66850586 -0.89889648 28.66850586 -2.13476562 28.71289062 C-5.96277093 28.75364744 -8.42426035 28.52890132 -11.91796875 26.8515625 C-14.79766033 23.1154357 -14.53719952 19.9645092 -14.375 15.375 C-14.37757812 14.57642578 -14.38015625 13.77785156 -14.3828125 12.95507812 C-14.30553671 8.29148417 -13.88869259 5.08700224 -10.875 1.3125 C-7.49341559 -0.3782922 -3.71552188 0.04360941 0 0 Z M-7.875 1.3125 C-7.875 2.3025 -7.875 3.2925 -7.875 4.3125 C-7.215 4.3125 -6.555 4.3125 -5.875 4.3125 C-5.875 4.9725 -5.875 5.6325 -5.875 6.3125 C-4.555 6.3125 -3.235 6.3125 -1.875 6.3125 C-1.875 7.6325 -1.875 8.9525 -1.875 10.3125 C-0.555 10.3125 0.765 10.3125 2.125 10.3125 C2.125 8.9925 2.125 7.6725 2.125 6.3125 C3.115 6.3125 4.105 6.3125 5.125 6.3125 C5.125 9.9425 5.125 13.5725 5.125 17.3125 C3.125 16.3125 3.125 16.3125 2.125 13.3125 C0.805 13.3125 -0.515 13.3125 -1.875 13.3125 C-2.205 14.3025 -2.535 15.2925 -2.875 16.3125 C-5.845 15.8175 -5.845 15.8175 -8.875 15.3125 C-8.215 15.9725 -7.555 16.6325 -6.875 17.3125 C-6.875 18.3025 -6.875 19.2925 -6.875 20.3125 C-8.875 19.3125 -8.875 19.3125 -10.875 16.3125 C-12.26408639 17.48360184 -12.26408639 17.48360184 -12.125 20.75 C-12.0425 21.925625 -11.96 23.10125 -11.875 24.3125 C-8.82526315 26.3456579 -8.18543132 26.5673508 -4.75 26.578125 C-3.96109375 26.58070312 -3.1721875 26.58328125 -2.359375 26.5859375 C-1.53953125 26.57820313 -0.7196875 26.57046875 0.125 26.5625 C0.94484375 26.57023437 1.7646875 26.57796875 2.609375 26.5859375 C3.39828125 26.58335938 4.1871875 26.58078125 5 26.578125 C6.07894531 26.57474121 6.07894531 26.57474121 7.1796875 26.57128906 C9.44853438 26.4146844 9.44853438 26.4146844 12.125 24.3125 C12.77767335 21.2309353 12.58806708 18.0799264 12.5625 14.9375 C12.58248047 14.07382812 12.60246094 13.21015625 12.62304688 12.3203125 C12.62012672 8.53579491 12.54566782 6.03209199 10.61328125 2.7265625 C7.07952775 0.71836977 3.81484612 0.88151767 -0.125 1.0625 C-0.87007812 1.08054687 -1.61515625 1.09859375 -2.3828125 1.1171875 C-4.21409701 1.16414351 -6.04471649 1.23588348 -7.875 1.3125 Z " fill="#9EA0A1" transform="translate(19.875,4.6875)"/>
<path d="M0 0 C5.011875 -0.103125 10.02375 -0.20625 15.1875 -0.3125 C16.76039795 -0.35802002 18.3332959 -0.40354004 19.95385742 -0.45043945 C21.20013916 -0.46292725 22.4464209 -0.47541504 23.73046875 -0.48828125 C25.00301514 -0.51446533 26.27556152 -0.54064941 27.58666992 -0.56762695 C31.88755584 0.14759798 33.31164687 1.64793328 36 5 C36.8125 7.3125 36.8125 7.3125 37 9 C36.401875 8.360625 35.80375 7.72125 35.1875 7.0625 C30.79547567 2.92144848 25.32549795 3.70973713 19.625 3.625 C18.67882812 3.58761719 17.73265625 3.55023438 16.7578125 3.51171875 C12.38053851 3.45638804 9.70721311 3.59222955 5.86328125 5.80859375 C3.05470815 10.61908479 3.38774948 14.97226315 3.5625 20.4375 C3.56830078 21.46166016 3.57410156 22.48582031 3.58007812 23.54101562 C3.66259981 28.64085576 3.74171944 33.32376248 6 38 C6.99 38.66 7.98 39.32 9 40 C6.03 40 3.06 40 0 40 C0 26.8 0 13.6 0 0 Z " fill="#D3D6D1" transform="translate(0,0)"/>
<path d="M0 0 C1.28293945 -0.0309375 1.28293945 -0.0309375 2.59179688 -0.0625 C7.47385191 -0.09275286 10.70268961 0.10032951 14.6875 3.25 C17.28167075 5.84417075 15.92213158 13.13636876 15.9375 16.625 C15.958125 17.78773437 15.97875 18.95046875 16 20.1484375 C16.00515625 21.2621875 16.0103125 22.3759375 16.015625 23.5234375 C16.02964355 25.06136963 16.02964355 25.06136963 16.04394531 26.63037109 C15.6875 29.25 15.6875 29.25 14.50683594 31.08300781 C12.00829572 32.6856678 10.20779109 32.63812648 7.25 32.6484375 C6.19039062 32.65230469 5.13078125 32.65617187 4.0390625 32.66015625 C2.93304687 32.64855469 1.82703125 32.63695312 0.6875 32.625 C-0.41851562 32.63660156 -1.52453125 32.64820313 -2.6640625 32.66015625 C-3.72367188 32.65628906 -4.78328125 32.65242188 -5.875 32.6484375 C-6.84566406 32.64505371 -7.81632813 32.64166992 -8.81640625 32.63818359 C-11.72732401 32.18548805 -12.58745423 31.59575913 -14.3125 29.25 C-15.73927273 24.96968182 -15.577156 20.85957758 -15.625 16.375 C-15.65400391 15.47652344 -15.68300781 14.57804687 -15.71289062 13.65234375 C-15.75435146 9.33403791 -15.72985071 6.92636631 -13.41796875 3.1796875 C-9.28141141 -0.61151719 -5.36493365 0.03191039 0 0 Z M-12.3125 5.25 C-14.01183426 8.64866852 -13.62299701 12.37796249 -13.6875 16.125 C-13.72488281 16.94097656 -13.76226562 17.75695312 -13.80078125 18.59765625 C-13.85905862 22.56699293 -13.83115597 24.57709306 -11.35546875 27.7890625 C-7.21983185 29.77459293 -3.78097719 29.83776711 0.75 29.75 C1.95366211 29.77320313 1.95366211 29.77320313 3.18164062 29.796875 C7.0092156 29.77146371 9.04233597 29.72655308 12.18359375 27.40625 C15.01259402 23.35012494 14.88061168 19.7010262 14.9375 14.875 C14.96328125 13.56789063 14.9890625 12.26078125 15.015625 10.9140625 C14.67400077 7.09925856 14.00391599 5.25234499 11.6875 2.25 C8.30591559 0.5592078 4.52802188 0.98110941 0.8125 0.9375 C-0.41146484 0.89399414 -0.41146484 0.89399414 -1.66015625 0.84960938 C-6.59836807 0.79724661 -9.26124618 0.94469683 -12.3125 5.25 Z " fill="#EBF0F5" transform="translate(19.3125,3.75)"/>
<path d="M0 0 C0.7425 0.73283203 0.7425 0.73283203 1.5 1.48046875 C4.94222175 3.57269415 8.09774424 3.4008663 12 3.3125 C13.06734375 3.31733398 13.06734375 3.31733398 14.15625 3.32226562 C17.91410121 3.28370558 20.81263319 3.08340903 24 1 C24.1875 3.375 24.1875 3.375 24 6 C20.95026315 8.0331579 20.31043132 8.2548508 16.875 8.265625 C16.08609375 8.26820312 15.2971875 8.27078125 14.484375 8.2734375 C13.66453125 8.26570313 12.8446875 8.25796875 12 8.25 C11.18015625 8.25773437 10.3603125 8.26546875 9.515625 8.2734375 C8.72671875 8.27085938 7.9378125 8.26828125 7.125 8.265625 C6.40570312 8.26336914 5.68640625 8.26111328 4.9453125 8.25878906 C3 8 3 8 0 6 C-0.1875 2.875 -0.1875 2.875 0 0 Z " fill="#B8BEC1" transform="translate(8,23)"/>
<path d="M0 0 C1.32 0 2.64 0 4 0 C4.33 0.99 4.66 1.98 5 3 C6.66270287 4.33827304 8.32916181 5.67189785 10 7 C10 7.66 10 8.32 10 9 C7.41554227 9.1081866 4.83562648 9.18737237 2.25 9.25 C1.52039062 9.28351562 0.79078125 9.31703125 0.0390625 9.3515625 C-3.67144375 9.41902625 -5.57156961 9.34327652 -8.515625 6.984375 C-9.25039062 6.00210937 -9.25039062 6.00210937 -10 5 C-9.34 4.34 -8.68 3.68 -8 3 C-7.67 3.99 -7.34 4.98 -7 6 C-6.34 6.33 -5.68 6.66 -5 7 C-5 6.01 -5 5.02 -5 4 C-5.66 3.34 -6.32 2.68 -7 2 C-4.03 2.495 -4.03 2.495 -1 3 C-0.67 2.01 -0.34 1.02 0 0 Z " fill="#F3F6F0" transform="translate(18,18)"/>
<path d="M0 0 C0.99 0 1.98 0 3 0 C3 1.32 3 2.64 3 4 C4.32 4 5.64 4 7 4 C7 2.68 7 1.36 7 0 C7.99 0 8.98 0 10 0 C10 3.63 10 7.26 10 11 C9.01 10.67 8.02 10.34 7 10 C7 9.01 7 8.02 7 7 C5.68 7 4.36 7 3 7 C2.67 8.32 2.34 9.64 2 11 C1.34 11 0.68 11 0 11 C0 7.37 0 3.74 0 0 Z " fill="#54585B" transform="translate(15,11)"/>
<path d="M0 0 C0.85078125 0.00322266 1.7015625 0.00644531 2.578125 0.00976562 C3.46757812 0.01814453 4.35703125 0.02652344 5.2734375 0.03515625 C6.170625 0.03966797 7.0678125 0.04417969 7.9921875 0.04882812 C10.21100398 0.06063034 12.42968768 0.0770947 14.6484375 0.09765625 C14.6484375 0.42765625 14.6484375 0.75765625 14.6484375 1.09765625 C13.38386719 1.13503906 12.11929687 1.17242187 10.81640625 1.2109375 C9.1562202 1.27659458 7.49606528 1.34304201 5.8359375 1.41015625 C5.00255859 1.43271484 4.16917969 1.45527344 3.31054688 1.47851562 C2.50810547 1.51396484 1.70566406 1.54941406 0.87890625 1.5859375 C0.14051514 1.61212158 -0.59787598 1.63830566 -1.35864258 1.6652832 C-3.86101527 2.20818435 -4.75282591 3.13569344 -6.3515625 5.09765625 C-7.46980065 7.33413256 -7.54552311 8.74657154 -7.66796875 11.23046875 C-7.70986328 12.03613281 -7.75175781 12.84179688 -7.79492188 13.671875 C-7.85389648 14.93451172 -7.85389648 14.93451172 -7.9140625 16.22265625 C-7.95724609 17.07214844 -8.00042969 17.92164062 -8.04492188 18.796875 C-8.15110486 20.89693848 -8.25184747 22.99727573 -8.3515625 25.09765625 C-9.0115625 25.42765625 -9.6715625 25.75765625 -10.3515625 26.09765625 C-10.46824125 22.86879616 -10.53896796 19.6404818 -10.6015625 16.41015625 C-10.63507812 15.49814453 -10.66859375 14.58613281 -10.703125 13.64648438 C-10.76663811 9.2799583 -10.78878736 6.81040504 -8.4609375 3.015625 C-5.48004235 0.30521849 -3.92601906 -0.02617346 0 0 Z " fill="#D9DADB" transform="translate(14.3515625,3.90234375)"/>
<path d="M0 0 C0.55558594 0.32452148 1.11117188 0.64904297 1.68359375 0.98339844 C4.32983715 2.14475568 6.18207473 2.25820122 9.0625 2.265625 C10.50496094 2.26949219 10.50496094 2.26949219 11.9765625 2.2734375 C12.97429688 2.26570313 13.97203125 2.25796875 15 2.25 C16.49660156 2.26160156 16.49660156 2.26160156 18.0234375 2.2734375 C18.98507813 2.27085938 19.94671875 2.26828125 20.9375 2.265625 C21.81277344 2.26336914 22.68804688 2.26111328 23.58984375 2.25878906 C26.14923126 1.98397638 27.79215631 1.28961635 30 0 C28.125 3.875 28.125 3.875 27 5 C23.04885455 5.28058489 19.08492277 5.23181436 15.125 5.25 C14.00996094 5.270625 12.89492188 5.29125 11.74609375 5.3125 C10.67746094 5.31765625 9.60882813 5.3228125 8.5078125 5.328125 C7.03272217 5.34214355 7.03272217 5.34214355 5.52783203 5.35644531 C3 5 3 5 1.15576172 3.60449219 C0 2 0 2 0 0 Z " fill="#AFB3BC" transform="translate(5,31)"/>
<path d="M0 0 C1.485 0.99 1.485 0.99 3 2 C5.33687115 2.30757644 5.33687115 2.30757644 7.9296875 2.265625 C8.89003906 2.26820312 9.85039062 2.27078125 10.83984375 2.2734375 C12.34224609 2.26183594 12.34224609 2.26183594 13.875 2.25 C14.86886719 2.25773437 15.86273438 2.26546875 16.88671875 2.2734375 C17.84964844 2.27085938 18.81257813 2.26828125 19.8046875 2.265625 C20.68108887 2.26336914 21.55749023 2.26111328 22.46044922 2.25878906 C25.26957966 1.97252889 27.43735214 1.15851241 30 0 C28.125 3.875 28.125 3.875 27 5 C23.23597238 5.25297599 19.45901963 5.18522937 15.6875 5.1875 C14.62853516 5.19974609 13.56957031 5.21199219 12.47851562 5.22460938 C11.45822266 5.22654297 10.43792969 5.22847656 9.38671875 5.23046875 C8.45045654 5.23457764 7.51419434 5.23868652 6.54956055 5.24291992 C3.90238674 4.99069949 2.27030953 4.34525753 0 3 C0 2.01 0 1.02 0 0 Z " fill="#A8ABB4" transform="translate(5,35)"/>
<path d="M0 0 C3.63 0 7.26 0 11 0 C11.33 0.99 11.66 1.98 12 3 C12.66 3.33 13.32 3.66 14 4 C13.01 4 12.02 4 11 4 C11 5.32 11 6.64 11 8 C9.68 8 8.36 8 7 8 C7 6.68 7 5.36 7 4 C5.68 4 4.36 4 3 4 C3 3.34 3 2.68 3 2 C2.01 1.67 1.02 1.34 0 1 C0 0.67 0 0.34 0 0 Z " fill="#F7F9F3" transform="translate(11,7)"/>
<path d="M0 0 C2.97 0 5.94 0 9 0 C8 3 8 3 5.5625 5.25 C2.46619385 8.57286514 1.94069302 10.6386051 1 15 C0.67 15 0.34 15 0 15 C0 10.05 0 5.1 0 0 Z " fill="#C6C9BF" transform="translate(0,0)"/>
<path d="M0 0 C2.97 0 5.94 0 9 0 C9 3.63 9 7.26 9 11 C7.68 10.34 6.36 9.68 5 9 C4.64587656 7.67203709 4.31478446 6.33783393 4 5 C2.70644173 3.62804426 1.37701298 2.28817344 0 1 C0 0.67 0 0.34 0 0 Z " fill="#C8CAC1" transform="translate(31,0)"/>
<path d="M0 0 C0.66 0 1.32 0 2 0 C2.18175781 0.62648438 2.36351562 1.25296875 2.55078125 1.8984375 C2.80214844 2.71570313 3.05351563 3.53296875 3.3125 4.375 C3.55613281 5.18710937 3.79976563 5.99921875 4.05078125 6.8359375 C4.91368185 9.33184629 4.91368185 9.33184629 8 11 C5.03 11 2.06 11 -1 11 C-1.02688151 9.35425434 -1.04634123 7.70838587 -1.0625 6.0625 C-1.07410156 5.14597656 -1.08570312 4.22945312 -1.09765625 3.28515625 C-1 1 -1 1 0 0 Z " fill="#C4C5C4" transform="translate(1,29)"/>
<path d="M0 0 C2.24606427 1.77444972 2.95081002 2.58352485 3.29296875 5.48046875 C3.25816406 6.37378906 3.22335938 7.26710938 3.1875 8.1875 C3.16042969 9.08855469 3.13335937 9.98960938 3.10546875 10.91796875 C3.07066406 11.60503906 3.03585938 12.29210938 3 13 C0 12 0 12 -1.6875 8.6875 C-3 5 -3 5 -3 1 C-2.01 0.67 -1.02 0.34 0 0 Z " fill="#DADCD4" transform="translate(29,7)"/>
<path d="M0 0 C0.33 0 0.66 0 1 0 C1 3.3 1 6.6 1 10 C-1.64 10 -4.28 10 -7 10 C-5.6875 7.0625 -5.6875 7.0625 -4 4 C-3.01 3.67 -2.02 3.34 -1 3 C-0.67 2.01 -0.34 1.02 0 0 Z " fill="#C6C7C7" transform="translate(39,30)"/>
<path d="M0 0 C0.99 0 1.98 0 3 0 C3 3.63 3 7.26 3 11 C2.01 10.67 1.02 10.34 0 10 C0 8.68 0 7.36 0 6 C-1.32 5.67 -2.64 5.34 -4 5 C-2.68 5 -1.36 5 0 5 C0 3.35 0 1.7 0 0 Z " fill="#4B4E4F" transform="translate(22,11)"/>
<path d="M0 0 C2.86724686 0.57344937 3.8614515 0.8614515 6 3 C6.22705078 5.24658203 6.22705078 5.24658203 6.1953125 8.0078125 C6.18886719 8.99394531 6.18242188 9.98007813 6.17578125 10.99609375 C6.15902344 12.02863281 6.14226563 13.06117187 6.125 14.125 C6.11597656 15.16527344 6.10695313 16.20554687 6.09765625 17.27734375 C6.07403747 19.85179092 6.04110149 22.42578212 6 25 C5.67 25 5.34 25 5 25 C4.98018066 24.44538086 4.96036133 23.89076172 4.93994141 23.31933594 C4.84442349 20.79576307 4.73485433 18.27298776 4.625 15.75 C4.5940625 14.87730469 4.563125 14.00460938 4.53125 13.10546875 C4.49257813 12.26113281 4.45390625 11.41679687 4.4140625 10.546875 C4.3826416 9.77182617 4.3512207 8.99677734 4.31884766 8.19824219 C3.80242208 4.63783189 2.52609664 2.52609664 0 0 Z " fill="#F3F4F7" transform="translate(29,5)"/>
<path d="M0 0 C5.28 0 10.56 0 16 0 C16 0.99 16 1.98 16 3 C15.34 2.67 14.68 2.34 14 2 C13.67 3.32 13.34 4.64 13 6 C13 5.34 13 4.68 13 4 C12.34 4 11.68 4 11 4 C10.67 3.34 10.34 2.68 10 2 C7.64400765 1.53248212 7.64400765 1.53248212 4.9375 1.375 C4.01839844 1.30023438 3.09929688 1.22546875 2.15234375 1.1484375 C1.08693359 1.07496094 1.08693359 1.07496094 0 1 C0 0.67 0 0.34 0 0 Z " fill="#E4E5E4" transform="translate(12,6)"/>
<path d="M0 0 C1.15957207 3.47871621 0.77456651 4.34219645 -0.4375 7.6875 C-0.72496094 8.49574219 -1.01242188 9.30398438 -1.30859375 10.13671875 C-1.65083984 11.05904297 -1.65083984 11.05904297 -2 12 C-2.33 12 -2.66 12 -3 12 C-3 8.37 -3 4.74 -3 1 C-2.01 0.67 -1.02 0.34 0 0 Z " fill="#CBCDC8" transform="translate(3,3)"/>
<path d="M0 0 C0.66 1.32 1.32 2.64 2 4 C0.5625 6 0.5625 6 -2 8 C-5.02824418 8.35442445 -7.96485939 8.23347235 -11 8 C-11 7.67 -11 7.34 -11 7 C-10.37351562 6.91363281 -9.74703125 6.82726563 -9.1015625 6.73828125 C-6.63217125 6.31373291 -4.35643158 5.85727584 -2 5 C-0.32386813 2.52985528 -0.32386813 2.52985528 0 0 Z " fill="#E1E5E8" transform="translate(33,26)"/>
<path d="M0 0 C0.66 0 1.32 0 2 0 C2.33 1.65 2.66 3.3 3 5 C2.01 5.33 1.02 5.66 0 6 C-0.33 6.66 -0.66 7.32 -1 8 C-1.04241723 5.66705225 -1.04092937 3.33297433 -1 1 C-0.67 0.67 -0.34 0.34 0 0 Z " fill="#CBCFCB" transform="translate(1,29)"/>
<path d="M0 0 C2.64 0.99 5.28 1.98 8 3 C7.67 3.66 7.34 4.32 7 5 C4.625 4.75 4.625 4.75 2 4 C0.6875 1.9375 0.6875 1.9375 0 0 Z " fill="#A9AEB3" transform="translate(5,31)"/>
</svg>
